<mxfile host="app.diagrams.net" modified="2021-11-12T09:05:47.667Z" agent="5.0 (Macintosh; Intel Mac OS X 10_15_7) AppleWebKit/537.36 (KHTML, like Gecko) Chrome/93.0.4577.63 Safari/537.36" etag="36CkAiSysY4dlEBoH9zQ" version="15.7.3" type="github">
  <diagram id="vwnzGOGxKsxB0oyubae0" name="第 1 页">
    <mxGraphModel dx="946" dy="613" grid="1" gridSize="10" guides="1" tooltips="1" connect="1" arrows="1" fold="1" page="1" pageScale="1" pageWidth="2339" pageHeight="3300" math="0" shadow="0">
      <root>
        <mxCell id="0" />
        <mxCell id="1" parent="0" />
        <mxCell id="0PzA5PqEeFU19J5jFIjS-1" value="envoy" style="rounded=0;whiteSpace=wrap;html=1;" parent="1" vertex="1">
          <mxGeometry x="250" y="160" width="160" height="40" as="geometry" />
        </mxCell>
        <mxCell id="0PzA5PqEeFU19J5jFIjS-2" value="control-plane" style="rounded=0;whiteSpace=wrap;html=1;" parent="1" vertex="1">
          <mxGeometry x="710" y="160" width="160" height="40" as="geometry" />
        </mxCell>
        <mxCell id="0PzA5PqEeFU19J5jFIjS-4" value="" style="rounded=0;whiteSpace=wrap;html=1;" parent="1" vertex="1">
          <mxGeometry x="325" y="200" width="15" height="750" as="geometry" />
        </mxCell>
        <mxCell id="0PzA5PqEeFU19J5jFIjS-5" value="" style="rounded=0;whiteSpace=wrap;html=1;" parent="1" vertex="1">
          <mxGeometry x="782.5" y="200" width="15" height="750" as="geometry" />
        </mxCell>
        <mxCell id="0PzA5PqEeFU19J5jFIjS-9" value="" style="endArrow=classic;html=1;" parent="1" edge="1">
          <mxGeometry width="50" height="50" relative="1" as="geometry">
            <mxPoint x="340" y="210" as="sourcePoint" />
            <mxPoint x="780" y="260" as="targetPoint" />
          </mxGeometry>
        </mxCell>
        <mxCell id="0PzA5PqEeFU19J5jFIjS-10" value="{node:...,&lt;span style=&quot;font-size: 12px&quot;&gt;&amp;nbsp;version_info:&quot;&quot;,type:LDS,resource:[]}&lt;/span&gt;" style="text;html=1;align=center;verticalAlign=middle;resizable=0;points=[];autosize=1;strokeColor=none;" parent="1" vertex="1">
          <mxGeometry x="400" y="200" width="260" height="20" as="geometry" />
        </mxCell>
        <mxCell id="0PzA5PqEeFU19J5jFIjS-11" value="" style="endArrow=classic;html=1;" parent="1" edge="1">
          <mxGeometry width="50" height="50" relative="1" as="geometry">
            <mxPoint x="780" y="280" as="sourcePoint" />
            <mxPoint x="342" y="330" as="targetPoint" />
          </mxGeometry>
        </mxCell>
        <mxCell id="0PzA5PqEeFU19J5jFIjS-12" value="{version_info:&quot;1&quot;,resoures:[{type:LDS,data:proto}],type_url:LDS,nonce:&quot;1&quot;}" style="text;html=1;align=center;verticalAlign=middle;resizable=0;points=[];autosize=1;strokeColor=none;" parent="1" vertex="1">
          <mxGeometry x="340" y="260" width="410" height="20" as="geometry" />
        </mxCell>
        <mxCell id="0PzA5PqEeFU19J5jFIjS-14" value="" style="endArrow=classic;html=1;" parent="1" edge="1">
          <mxGeometry width="50" height="50" relative="1" as="geometry">
            <mxPoint x="340" y="350" as="sourcePoint" />
            <mxPoint x="780" y="410" as="targetPoint" />
          </mxGeometry>
        </mxCell>
        <mxCell id="0PzA5PqEeFU19J5jFIjS-15" value="{node:...,&lt;span style=&quot;font-size: 12px&quot;&gt;&amp;nbsp;&lt;br&gt;version_info:&quot;1&quot;,&lt;br&gt;type:LDS,&lt;br&gt;resource_names:[listener_1,llistener_2],nonce:&quot;1&quot;}&lt;/span&gt;" style="text;html=1;align=center;verticalAlign=middle;resizable=0;points=[];autosize=1;strokeColor=none;" parent="1" vertex="1">
          <mxGeometry x="470" y="310" width="280" height="60" as="geometry" />
        </mxCell>
        <mxCell id="0PzA5PqEeFU19J5jFIjS-20" value="初始化请求" style="endArrow=none;dashed=1;html=1;dashPattern=1 3;strokeWidth=2;" parent="1" edge="1">
          <mxGeometry width="50" height="50" relative="1" as="geometry">
            <mxPoint x="200" y="440" as="sourcePoint" />
            <mxPoint x="950" y="440" as="targetPoint" />
          </mxGeometry>
        </mxCell>
        <mxCell id="0PzA5PqEeFU19J5jFIjS-21" value="" style="endArrow=classic;html=1;" parent="1" edge="1">
          <mxGeometry width="50" height="50" relative="1" as="geometry">
            <mxPoint x="780" y="470" as="sourcePoint" />
            <mxPoint x="343" y="540" as="targetPoint" />
          </mxGeometry>
        </mxCell>
        <mxCell id="0PzA5PqEeFU19J5jFIjS-22" value="{version_info:&quot;2&quot;,resoures:[{type:LDS,data:proto}],type_url:LDS,nonce:&quot;2&quot;}" style="text;html=1;align=center;verticalAlign=middle;resizable=0;points=[];autosize=1;strokeColor=none;" parent="1" vertex="1">
          <mxGeometry x="340" y="450" width="410" height="20" as="geometry" />
        </mxCell>
        <mxCell id="0PzA5PqEeFU19J5jFIjS-23" value="" style="endArrow=classic;html=1;" parent="1" edge="1">
          <mxGeometry width="50" height="50" relative="1" as="geometry">
            <mxPoint x="340" y="550" as="sourcePoint" />
            <mxPoint x="780" y="630" as="targetPoint" />
          </mxGeometry>
        </mxCell>
        <mxCell id="0PzA5PqEeFU19J5jFIjS-24" value="{node:...,&lt;span style=&quot;font-size: 12px&quot;&gt;&amp;nbsp;&lt;br&gt;version_info:&quot;2&quot;,&lt;br&gt;type:LDS,&lt;br&gt;resource_names:[listener_1],nonce:&quot;2&quot;}&lt;/span&gt;" style="text;html=1;align=center;verticalAlign=middle;resizable=0;points=[];autosize=1;strokeColor=none;" parent="1" vertex="1">
          <mxGeometry x="515" y="520" width="230" height="60" as="geometry" />
        </mxCell>
        <mxCell id="0PzA5PqEeFU19J5jFIjS-25" value="资源变更，控制面主动推送" style="endArrow=none;dashed=1;html=1;dashPattern=1 3;strokeWidth=2;" parent="1" edge="1">
          <mxGeometry width="50" height="50" relative="1" as="geometry">
            <mxPoint x="200" y="650" as="sourcePoint" />
            <mxPoint x="950" y="650" as="targetPoint" />
          </mxGeometry>
        </mxCell>
        <mxCell id="0PzA5PqEeFU19J5jFIjS-26" value="" style="endArrow=classic;html=1;entryX=1.215;entryY=0.367;entryDx=0;entryDy=0;entryPerimeter=0;" parent="1" edge="1">
          <mxGeometry width="50" height="50" relative="1" as="geometry">
            <mxPoint x="782.5" y="670" as="sourcePoint" />
            <mxPoint x="345.7249999999999" y="737.6399999999999" as="targetPoint" />
          </mxGeometry>
        </mxCell>
        <mxCell id="0PzA5PqEeFU19J5jFIjS-27" value="{version_info:&quot;3&quot;,resoures:[{type:LDS,data:proto}],type_url:LDS,nonce:&quot;3&quot;}" style="text;html=1;align=center;verticalAlign=middle;resizable=0;points=[];autosize=1;strokeColor=none;" parent="1" vertex="1">
          <mxGeometry x="340" y="660" width="410" height="20" as="geometry" />
        </mxCell>
        <mxCell id="0PzA5PqEeFU19J5jFIjS-28" value="" style="endArrow=classic;html=1;" parent="1" edge="1">
          <mxGeometry width="50" height="50" relative="1" as="geometry">
            <mxPoint x="340" y="750" as="sourcePoint" />
            <mxPoint x="780" y="830" as="targetPoint" />
          </mxGeometry>
        </mxCell>
        <mxCell id="0PzA5PqEeFU19J5jFIjS-29" value="{node:...,&lt;span style=&quot;font-size: 12px&quot;&gt;&amp;nbsp;&lt;br&gt;version_info:&quot;3&quot;,&lt;br&gt;type:LDS,&lt;br&gt;resource_names:[],&lt;/span&gt;removed_resources[]listener_2,&lt;span style=&quot;font-size: 12px&quot;&gt;&lt;br&gt;,nonce:&quot;3&quot;}&lt;/span&gt;" style="text;html=1;align=center;verticalAlign=middle;resizable=0;points=[];autosize=1;strokeColor=none;" parent="1" vertex="1">
          <mxGeometry x="497.5" y="715" width="290" height="70" as="geometry" />
        </mxCell>
        <mxCell id="0PzA5PqEeFU19J5jFIjS-30" value="资源变更，控制面主动推送全量listener，删除listener_2" style="endArrow=none;dashed=1;html=1;dashPattern=1 3;strokeWidth=2;" parent="1" edge="1">
          <mxGeometry width="50" height="50" relative="1" as="geometry">
            <mxPoint x="200" y="850" as="sourcePoint" />
            <mxPoint x="950" y="850" as="targetPoint" />
          </mxGeometry>
        </mxCell>
      </root>
    </mxGraphModel>
  </diagram>
</mxfile>
